<mxfile host="app.diagrams.net" modified="2021-03-20T11:44:31.837Z" agent="5.0 (Macintosh; Intel Mac OS X 11_2_1) AppleWebKit/537.36 (KHTML, like Gecko) Chrome/88.0.4324.192 Safari/537.36" etag="XocdRCxL1jtz7e2hrX4Z" version="14.4.9" type="github">
  <diagram id="wYlke4VY2Ae1O9RU0sDJ" name="第 1 页">
    <mxGraphModel dx="2526" dy="1209" grid="0" gridSize="10" guides="1" tooltips="1" connect="1" arrows="1" fold="1" page="1" pageScale="1" pageWidth="1169" pageHeight="827" background="#DAD2D8" math="0" shadow="0">
      <root>
        <mxCell id="0" />
        <mxCell id="1" parent="0" />
        <mxCell id="2S8JFcUNcYetvbFkob-V-1" value="小程序" style="rounded=1;whiteSpace=wrap;html=1;fillColor=#FAE5C7;strokeColor=#0F8B8D;fontColor=#143642;sketch=1;" parent="1" vertex="1">
          <mxGeometry x="260" y="60" width="120" height="60" as="geometry" />
        </mxCell>
        <mxCell id="2S8JFcUNcYetvbFkob-V-2" value="WEB" style="rounded=1;whiteSpace=wrap;html=1;fillColor=#FAE5C7;strokeColor=#0F8B8D;fontColor=#143642;sketch=1;" parent="1" vertex="1">
          <mxGeometry x="540" y="60" width="120" height="60" as="geometry" />
        </mxCell>
        <mxCell id="2S8JFcUNcYetvbFkob-V-8" value="" style="shape=link;html=1;strokeColor=#A8201A;fontColor=#143642;labelBackgroundColor=#DAD2D8;sketch=1;" parent="1" edge="1">
          <mxGeometry width="100" relative="1" as="geometry">
            <mxPoint x="240" y="140" as="sourcePoint" />
            <mxPoint x="690" y="140" as="targetPoint" />
          </mxGeometry>
        </mxCell>
        <mxCell id="2S8JFcUNcYetvbFkob-V-11" value="网关" style="rounded=1;whiteSpace=wrap;html=1;fillColor=#FAE5C7;strokeColor=#0F8B8D;fontColor=#143642;sketch=1;" parent="1" vertex="1">
          <mxGeometry x="240" y="180" width="440" height="60" as="geometry" />
        </mxCell>
        <mxCell id="2S8JFcUNcYetvbFkob-V-12" value="" style="shape=link;html=1;strokeColor=#A8201A;fontColor=#143642;labelBackgroundColor=#DAD2D8;sketch=1;" parent="1" edge="1">
          <mxGeometry width="100" relative="1" as="geometry">
            <mxPoint x="230" y="280" as="sourcePoint" />
            <mxPoint x="680" y="280" as="targetPoint" />
          </mxGeometry>
        </mxCell>
        <mxCell id="2S8JFcUNcYetvbFkob-V-14" value="用户中心" style="rounded=1;whiteSpace=wrap;html=1;fillColor=#FAE5C7;strokeColor=#0F8B8D;fontColor=#143642;sketch=1;" parent="1" vertex="1">
          <mxGeometry x="260" y="330" width="120" height="60" as="geometry" />
        </mxCell>
        <mxCell id="2S8JFcUNcYetvbFkob-V-15" value="订单中心" style="rounded=1;whiteSpace=wrap;html=1;fillColor=#FAE5C7;strokeColor=#0F8B8D;fontColor=#143642;sketch=1;" parent="1" vertex="1">
          <mxGeometry x="410" y="330" width="120" height="60" as="geometry" />
        </mxCell>
        <mxCell id="2S8JFcUNcYetvbFkob-V-16" value="客服模块" style="rounded=1;whiteSpace=wrap;html=1;fillColor=#FAE5C7;strokeColor=#0F8B8D;fontColor=#143642;sketch=1;" parent="1" vertex="1">
          <mxGeometry x="550" y="330" width="120" height="60" as="geometry" />
        </mxCell>
        <mxCell id="2S8JFcUNcYetvbFkob-V-17" value="商品模块" style="rounded=1;whiteSpace=wrap;html=1;fillColor=#FAE5C7;strokeColor=#0F8B8D;fontColor=#143642;sketch=1;" parent="1" vertex="1">
          <mxGeometry x="260" y="420" width="120" height="60" as="geometry" />
        </mxCell>
        <mxCell id="2S8JFcUNcYetvbFkob-V-18" value="日志管理" style="rounded=1;whiteSpace=wrap;html=1;fillColor=#FAE5C7;strokeColor=#0F8B8D;fontColor=#143642;sketch=1;" parent="1" vertex="1">
          <mxGeometry x="410" y="420" width="120" height="60" as="geometry" />
        </mxCell>
        <mxCell id="2S8JFcUNcYetvbFkob-V-19" value="对话模块" style="rounded=1;whiteSpace=wrap;html=1;fillColor=#FAE5C7;strokeColor=#0F8B8D;fontColor=#143642;sketch=1;" parent="1" vertex="1">
          <mxGeometry x="560" y="420" width="120" height="60" as="geometry" />
        </mxCell>
        <mxCell id="m2LOqYEdOuod_5D4nzQ--5" value="" style="points=[];aspect=fixed;html=1;align=center;shadow=0;dashed=0;image;image=img/lib/allied_telesis/computer_and_terminals/Laptop.svg;rounded=0;strokeColor=#0F8B8D;fillColor=#FAE5C7;fontColor=#143642;labelBackgroundColor=#DAD2D8;sketch=1;" vertex="1" parent="1">
          <mxGeometry x="257" y="638" width="42" height="42.599999999999994" as="geometry" />
        </mxCell>
      </root>
    </mxGraphModel>
  </diagram>
</mxfile>
